<?xml version="1.0" standalone="no"?>
<!DOCTYPE svg PUBLIC "-//W3C//DTD SVG 20010904//EN"
 "http://www.w3.org/TR/2001/REC-SVG-20010904/DTD/svg10.dtd">
<svg version="1.0" xmlns="http://www.w3.org/2000/svg"
 width="1313.000000pt" height="1313.000000pt" viewBox="0 0 1313.000000 1313.000000"
 preserveAspectRatio="xMidYMid meet">
<metadata>
Created by potrace 1.14, written by Peter Selinger 2001-2017
</metadata>
<g transform="translate(0.000000,1313.000000) scale(0.100000,-0.100000)"
fill="#000000" stroke="none">
<path d="M4688 12392 c-10 -2 -18 -8 -18 -13 0 -5 -6 -9 -14 -9 -20 0 -68 -59
-59 -73 4 -7 -2 -5 -12 3 -10 8 -16 10 -12 3 4 -6 3 -14 -3 -18 -6 -4 -8 -11
-5 -16 4 -5 -1 -9 -9 -9 -9 0 -16 -5 -16 -10 0 -15 -72 -80 -82 -74 -4 3 -8 0
-8 -6 0 -6 -4 -8 -10 -5 -5 3 -10 1 -10 -5 0 -7 -7 -10 -15 -6 -8 3 -15 0 -15
-6 0 -6 -3 -9 -6 -6 -3 4 -20 0 -39 -7 -18 -8 -35 -11 -39 -8 -3 4 -6 2 -6 -3
0 -5 -12 -10 -27 -10 -16 -1 -46 -5 -68 -9 -22 -4 -46 -8 -52 -8 -7 0 -13 -5
-13 -10 0 -5 -7 -7 -15 -3 -8 3 -15 1 -15 -4 0 -6 -3 -9 -7 -8 -15 4 -53 -13
-53 -23 0 -6 -4 -8 -8 -5 -12 7 -64 -29 -55 -38 4 -4 -1 -4 -12 0 -15 6 -17 4
-11 -11 4 -11 4 -16 0 -13 -4 4 -20 -9 -35 -29 -16 -20 -29 -33 -29 -29 0 4
-11 -5 -25 -20 -14 -15 -25 -22 -25 -16 0 6 -17 2 -40 -9 -21 -10 -46 -19 -54
-19 -8 0 -18 -5 -21 -10 -4 -6 -11 -8 -16 -5 -5 4 -9 1 -9 -4 0 -6 -9 -11 -20
-11 -11 0 -20 -5 -20 -11 0 -5 -4 -8 -9 -5 -4 3 -17 -1 -27 -9 -10 -8 -27 -15
-37 -15 -10 0 -15 -4 -12 -10 3 -5 -3 -10 -15 -10 -12 0 -18 -4 -15 -10 3 -5
3 -10 -2 -10 -4 0 -25 -16 -46 -35 -21 -19 -35 -35 -30 -35 4 0 -3 -7 -15 -16
-12 -8 -20 -20 -17 -25 4 -5 -1 -9 -10 -9 -11 0 -15 -5 -11 -16 3 -8 2 -12 -3
-9 -5 3 -12 -4 -16 -15 -3 -11 -11 -20 -16 -20 -5 0 -9 -5 -9 -12 0 -6 -11
-26 -26 -45 -14 -18 -22 -38 -19 -43 3 -6 -1 -10 -11 -10 -12 0 -15 -6 -11
-21 3 -12 3 -18 0 -15 -9 9 -41 -57 -37 -77 1 -10 -1 -15 -7 -12 -8 6 -10 -2
-14 -75 -1 -17 -5 -33 -8 -37 -4 -3 -1 -13 6 -21 6 -9 7 -13 1 -9 -7 4 -10
-10 -9 -43 1 -31 -2 -48 -9 -47 -6 1 -10 -3 -9 -10 2 -6 -6 -15 -17 -18 -18
-6 -25 -17 -21 -38 1 -5 -3 -6 -8 -3 -5 4 -18 -5 -28 -19 -10 -15 -33 -42 -51
-62 -20 -22 -30 -43 -27 -52 3 -8 3 -12 -1 -9 -9 10 -47 -40 -39 -52 3 -6 -1
-13 -10 -16 -9 -4 -14 -12 -11 -20 3 -7 2 -14 -2 -16 -31 -13 -58 -328 -29
-328 7 0 5 -5 -3 -10 -11 -7 -11 -10 -2 -10 10 0 10 -5 1 -22 -7 -13 -11 -24
-10 -26 2 -2 -10 -18 -26 -35 -15 -18 -28 -35 -28 -39 0 -3 -4 -10 -9 -15 -5
-5 -6 -3 -2 5 4 6 2 12 -3 12 -6 0 -11 -4 -11 -9 0 -5 -20 -30 -45 -56 -25
-26 -44 -50 -41 -53 3 -3 -4 -13 -16 -23 -11 -11 -17 -19 -12 -19 5 0 5 -4 -1
-8 -5 -4 -17 -16 -25 -26 -13 -18 -13 -19 0 -11 11 6 10 3 -3 -12 -9 -11 -14
-23 -10 -26 3 -4 1 -7 -6 -7 -8 0 -11 -8 -8 -20 3 -11 1 -20 -5 -20 -5 0 -8
-8 -6 -17 1 -10 -1 -24 -5 -30 -5 -7 -4 -13 0 -13 5 0 9 -8 10 -17 2 -32 12
-65 25 -80 7 -8 13 -22 14 -31 2 -8 7 -18 12 -21 20 -13 34 -111 17 -123 -7
-5 -7 -8 0 -8 12 0 13 -69 2 -87 -5 -8 -3 -13 5 -13 11 0 11 -2 0 -9 -7 -4
-14 -23 -16 -42 -4 -48 -17 -93 -30 -101 -7 -5 -7 -8 2 -8 7 0 10 -4 7 -10 -8
-13 -15 -47 -19 -91 -2 -20 -6 -41 -10 -47 -3 -6 -2 -14 4 -17 8 -5 7 -11 -1
-21 -9 -11 -9 -14 0 -14 7 0 9 -5 5 -12 -10 -16 -11 -58 -2 -58 4 0 8 -13 8
-28 0 -16 3 -32 7 -36 4 -4 8 -17 9 -29 3 -29 29 -97 40 -106 5 -3 9 -10 10
-16 0 -12 14 -65 21 -85 19 -49 20 -175 2 -205 -4 -5 -6 -26 -5 -47 0 -20 -3
-34 -8 -30 -5 3 -7 -2 -3 -10 3 -9 0 -21 -6 -27 -8 -8 -7 -11 4 -11 12 0 12
-2 0 -9 -8 -5 -14 -29 -15 -62 0 -30 -5 -57 -10 -60 -4 -4 -9 -38 -10 -77 0
-40 -5 -68 -10 -64 -5 3 -7 -2 -3 -10 3 -9 3 -19 -1 -23 -4 -4 -8 -28 -8 -55
-1 -26 -5 -53 -8 -59 -4 -6 -1 -11 6 -11 8 0 9 -3 3 -8 -15 -11 -17 -32 -2
-32 8 0 7 -3 -3 -10 -10 -6 -14 -28 -15 -72 -1 -35 -5 -69 -9 -76 -4 -7 -2
-12 4 -12 6 0 8 -5 4 -12 -4 -7 -9 -87 -10 -178 -2 -91 -4 -167 -5 -170 -1 -3
0 -9 1 -15 6 -28 4 -77 -2 -82 -5 -2 -5 -9 -2 -15 4 -5 7 -65 7 -132 0 -66 4
-127 10 -133 6 -9 6 -13 -1 -13 -6 0 -10 -9 -9 -20 1 -11 4 -20 7 -20 4 0 7
-7 7 -15 0 -8 -4 -12 -8 -9 -4 2 -7 -5 -6 -16 1 -11 5 -20 9 -20 4 0 3 -11 -2
-24 -5 -15 -5 -27 2 -34 6 -6 6 -12 -1 -16 -7 -4 -7 -15 -1 -31 6 -15 6 -27
-1 -30 -5 -4 -7 -11 -3 -16 6 -11 13 -122 17 -284 1 -55 6 -103 12 -107 6 -5
5 -8 -2 -8 -7 0 -10 -6 -7 -14 6 -15 13 -95 13 -143 0 -17 5 -34 11 -38 6 -3
7 -12 3 -18 -11 -18 -11 -57 -1 -57 5 0 0 -14 -12 -31 -22 -29 -23 -30 -41
-12 -30 30 -48 43 -58 43 -5 0 -25 16 -45 36 -20 20 -36 32 -36 27 0 -4 -4 -3
-8 3 -12 17 -85 48 -117 48 -61 2 -172 -76 -190 -133 -3 -12 -11 -21 -16 -21
-5 0 -9 -8 -9 -18 0 -10 -5 -23 -10 -28 -10 -10 -14 -24 -26 -84 -3 -14 -8
-34 -11 -45 -11 -34 -14 -84 -15 -220 -1 -160 4 -235 16 -235 5 0 3 -7 -4 -15
-7 -8 -8 -15 -3 -15 5 0 9 -10 10 -22 0 -13 3 -50 7 -83 13 -116 18 -160 19
-182 1 -13 4 -23 7 -23 3 0 6 -10 7 -22 0 -23 5 -58 19 -148 4 -25 8 -54 9
-65 1 -11 3 -20 4 -20 2 0 5 -20 7 -45 3 -25 9 -47 12 -50 4 -3 8 -14 9 -24 4
-49 13 -115 18 -128 6 -18 24 -119 29 -164 2 -13 6 -27 9 -31 4 -3 7 -17 7
-29 0 -13 5 -26 10 -29 6 -4 8 -10 5 -15 -3 -5 1 -25 9 -45 8 -19 12 -35 9
-35 -3 0 0 -7 7 -15 7 -8 10 -15 6 -15 -4 0 1 -11 10 -25 9 -14 13 -25 10 -25
-4 0 1 -11 10 -25 9 -14 13 -25 10 -25 -4 0 3 -18 14 -40 11 -21 20 -46 20
-55 0 -8 3 -15 8 -15 4 0 16 -16 26 -35 10 -19 23 -32 29 -28 6 3 7 1 4 -4 -4
-6 5 -23 18 -37 14 -15 25 -24 25 -21 0 6 15 -5 50 -37 10 -9 21 -14 24 -11 3
3 11 1 18 -4 7 -6 21 -9 31 -8 9 2 17 -1 17 -5 0 -5 15 -8 33 -6 44 5 55 -10
60 -81 0 -13 4 -23 7 -23 3 0 6 -10 7 -22 1 -13 4 -34 8 -48 4 -14 7 -33 7
-42 -1 -10 4 -20 9 -23 5 -4 7 -11 3 -16 -3 -5 0 -16 6 -24 6 -8 9 -19 5 -25
-3 -5 -1 -10 5 -10 6 0 8 -11 6 -25 -3 -14 0 -25 5 -25 5 0 9 -9 9 -19 0 -11
4 -22 10 -26 5 -3 7 -12 3 -20 -3 -8 0 -15 7 -15 7 0 10 -6 7 -13 -3 -7 4 -30
14 -52 10 -21 19 -45 19 -52 0 -7 5 -13 11 -13 5 0 8 -4 5 -9 -3 -5 1 -22 9
-37 8 -16 15 -35 15 -42 0 -7 4 -10 10 -7 6 3 7 -1 4 -10 -4 -8 1 -26 10 -40
9 -13 16 -31 16 -40 0 -8 5 -15 10 -15 6 0 9 -4 8 -8 -5 -14 25 -82 36 -82 5
0 6 -3 3 -7 -4 -3 1 -15 10 -26 12 -13 13 -17 4 -12 -9 5 -5 -5 7 -22 12 -17
22 -36 22 -42 0 -6 5 -11 10 -11 6 0 9 -3 8 -7 -3 -13 44 -113 53 -113 5 0 9
-7 9 -16 0 -8 7 -22 15 -31 8 -8 13 -19 10 -24 -4 -5 -1 -9 5 -9 6 0 8 -4 5
-10 -3 -5 1 -10 9 -10 9 0 16 -9 16 -20 0 -11 5 -20 11 -20 5 0 8 -4 4 -9 -3
-5 5 -20 17 -33 13 -13 24 -30 26 -38 2 -8 7 -17 11 -20 3 -3 12 -18 19 -33 8
-18 17 -26 25 -21 6 4 9 4 5 -1 -4 -4 -3 -14 3 -22 6 -7 8 -13 4 -13 -4 0 3
-9 16 -21 13 -11 17 -18 9 -14 -8 4 -6 -1 4 -9 11 -9 17 -16 12 -16 -4 0 5
-11 19 -25 14 -14 25 -30 25 -35 0 -5 7 -16 17 -25 9 -9 38 -47 64 -83 78
-108 83 -115 97 -128 6 -7 12 -15 12 -19 0 -13 28 -34 35 -27 5 4 5 2 2 -4 -3
-6 5 -22 19 -37 13 -14 24 -29 24 -33 0 -4 8 -14 18 -23 9 -9 34 -35 54 -58
20 -23 39 -39 42 -35 3 3 6 -2 6 -11 0 -10 5 -17 10 -17 6 0 10 -6 10 -13 0
-7 9 -18 20 -25 12 -7 18 -18 14 -25 -4 -7 -4 -9 0 -5 7 6 46 -25 46 -36 0
-17 217 -235 226 -228 4 4 4 2 1 -4 -6 -10 35 -54 49 -54 4 0 35 -28 69 -62
34 -35 79 -76 99 -93 20 -16 55 -47 78 -67 22 -21 44 -38 49 -38 5 0 9 -7 9
-16 0 -8 4 -13 9 -10 5 3 20 -5 35 -19 14 -13 26 -22 26 -19 0 2 14 -9 31 -26
18 -16 36 -30 40 -30 15 0 48 -38 41 -46 -4 -4 -2 -4 4 -1 6 4 22 -2 35 -13
13 -11 29 -24 35 -28 5 -5 21 -15 35 -22 13 -7 26 -16 29 -19 9 -11 65 -47 83
-54 9 -3 17 -11 17 -17 0 -6 5 -8 10 -5 6 3 10 2 10 -3 0 -5 14 -15 30 -22 17
-7 30 -16 30 -20 0 -4 11 -11 25 -14 14 -4 25 -11 25 -17 0 -6 5 -7 10 -4 6 3
10 2 10 -3 0 -9 69 -38 83 -34 5 1 6 -2 2 -8 -3 -5 -1 -11 4 -11 32 -4 81 -27
81 -39 0 -5 3 -9 8 -8 15 4 72 -14 72 -23 0 -5 3 -8 8 -7 12 2 106 -43 114
-55 4 -7 8 -8 8 -3 0 5 7 3 15 -4 8 -7 15 -9 15 -5 0 4 8 1 17 -6 14 -12 16
-12 9 1 -7 13 -6 13 6 0 7 -8 20 -16 28 -18 8 -2 27 -10 43 -17 15 -7 25 -9
21 -4 -4 7 0 7 12 0 17 -9 36 -16 56 -20 4 -1 25 -8 47 -16 22 -7 41 -11 44
-8 3 2 14 0 25 -6 18 -10 72 -23 100 -24 6 0 12 -3 12 -7 0 -3 10 -7 23 -8 31
-2 82 -10 82 -12 0 -2 62 -11 100 -13 17 -2 36 -6 44 -11 8 -5 16 -3 22 5 7
12 9 12 9 0 0 -7 6 -11 14 -8 7 3 19 0 26 -6 10 -9 11 -9 5 3 -7 12 -6 13 6 4
8 -7 26 -10 42 -8 15 1 27 -2 27 -8 0 -6 6 -5 16 3 13 10 17 10 25 -2 7 -12 9
-12 9 1 0 9 3 11 8 5 4 -6 28 -11 54 -10 27 0 48 -4 48 -8 0 -5 5 -5 10 -2 6
4 7 12 3 18 -3 7 2 5 13 -4 10 -9 28 -15 38 -13 11 1 28 -2 39 -8 12 -6 17 -6
13 0 -3 6 9 9 29 9 19 -1 35 -5 35 -10 0 -6 5 -5 13 0 6 6 33 9 60 9 26 -1 47
2 47 6 0 4 11 3 25 -2 20 -8 23 -7 18 8 -6 15 -4 15 10 4 17 -15 64 -14 85 1
8 6 12 5 12 -2 0 -7 5 -9 12 -5 6 4 34 9 62 10 44 3 154 12 209 17 9 1 17 4
17 8 0 4 8 6 18 5 9 -2 20 2 24 8 6 8 8 8 8 -1 0 -9 9 -8 35 3 19 8 35 12 35
9 0 -3 10 -1 21 6 16 8 20 8 14 -1 -4 -7 7 -5 25 5 17 9 34 14 38 11 3 -3 11
-1 19 5 7 6 13 9 13 6 0 -3 16 1 35 9 20 8 40 12 45 9 6 -4 10 -1 10 5 0 6 4
9 9 5 5 -3 12 -1 16 5 4 6 11 8 16 5 5 -4 9 -1 9 5 0 7 7 10 15 6 8 -3 15 -1
15 5 0 6 4 8 9 4 5 -3 12 -1 16 5 4 6 10 8 15 5 5 -3 11 -1 15 5 3 5 15 10 25
10 10 0 25 7 33 15 8 8 17 12 20 9 2 -3 20 4 38 14 19 10 40 17 47 15 6 -3 12
0 12 6 0 6 4 11 10 11 26 0 120 43 114 52 -4 7 -2 8 4 4 6 -3 25 2 43 13 18
11 36 18 41 15 4 -3 8 0 8 5 0 6 7 11 16 11 9 0 12 5 8 12 -4 6 -3 8 3 5 12
-7 63 14 63 26 0 5 5 5 10 2 6 -3 10 -2 10 3 0 5 16 17 36 27 19 9 38 23 41
31 3 8 9 11 14 8 5 -3 9 0 9 7 0 7 3 10 6 6 9 -8 33 16 26 27 -3 5 0 6 7 1 7
-4 22 2 37 16 13 12 24 19 24 15 0 -4 7 0 16 8 8 9 20 13 26 10 7 -4 8 -2 4 4
-4 7 -1 12 9 12 9 0 13 5 10 10 -3 6 0 10 8 10 8 0 26 9 41 21 14 11 26 18 26
14 0 -3 11 6 25 20 14 14 30 25 36 25 6 0 7 4 4 10 -3 6 1 7 9 4 9 -4 18 1 22
10 3 9 12 16 20 16 8 0 14 5 14 10 0 6 8 14 17 17 22 9 53 40 45 47 -3 3 0 6
7 6 18 0 82 46 74 53 -3 4 -1 7 5 7 6 0 24 12 40 27 16 16 48 44 72 63 24 19
67 59 97 88 29 28 57 52 62 52 5 0 12 7 15 16 3 8 10 12 16 9 5 -3 10 -2 10 4
0 14 48 61 62 61 6 0 9 3 6 6 -3 3 34 45 83 93 49 49 89 92 89 95 0 4 18 25
40 46 23 22 38 40 35 40 -3 0 3 8 12 18 10 11 21 17 26 15 4 -2 7 0 7 5 0 14
36 52 44 45 3 -3 6 1 6 9 0 8 11 27 25 42 14 15 22 32 19 38 -4 7 -2 8 4 4 7
-4 12 -2 12 4 0 6 5 8 10 5 6 -3 10 -2 10 4 0 5 14 23 30 39 17 17 30 35 30
41 0 6 5 11 10 11 6 0 10 7 10 16 0 8 4 13 9 9 5 -3 12 4 16 15 3 11 11 20 16
20 6 0 7 5 4 10 -3 6 -2 10 3 10 5 0 15 11 22 25 7 14 20 25 28 25 8 0 12 6 8
15 -3 8 -1 15 5 15 6 0 8 4 4 9 -3 5 4 12 15 16 11 4 18 11 15 16 -4 5 -1 9 4
9 6 0 10 3 9 8 -3 14 14 42 23 36 5 -3 9 1 9 9 0 8 11 26 24 40 13 14 21 28
18 31 -3 3 0 6 7 6 7 0 9 5 6 10 -3 6 -1 10 4 10 6 0 11 7 11 15 0 8 5 15 10
15 6 0 10 7 10 15 0 9 7 18 15 21 8 4 12 10 9 15 -3 5 -1 9 5 9 6 0 13 11 17
25 3 14 9 25 13 25 4 0 14 12 22 27 7 16 24 45 37 66 12 21 20 43 16 49 -4 6
-3 8 3 5 10 -7 28 20 25 36 -1 4 3 7 9 7 5 0 8 4 4 9 -3 6 0 13 7 18 7 4 13
13 13 18 0 10 86 186 95 195 3 3 6 12 8 20 2 8 8 17 13 18 5 2 9 8 9 13 0 6
-4 8 -9 4 -9 -5 28 75 39 85 3 3 6 12 6 20 0 8 7 29 14 45 14 33 21 53 22 73
1 6 5 12 9 12 4 0 6 9 4 20 -2 11 0 20 6 20 5 0 8 3 7 8 -2 12 14 67 23 72 4
3 9 19 12 35 9 52 19 90 30 103 6 8 5 12 -4 12 -11 0 -11 2 -1 8 7 5 15 19 17
32 5 25 26 44 35 32 8 -10 40 -11 40 -1 0 5 9 9 20 9 11 0 20 5 20 11 0 5 4 8
9 5 5 -3 14 1 21 9 7 8 16 13 20 10 4 -3 11 2 14 11 4 9 9 14 12 11 8 -8 104
93 104 109 0 8 4 14 9 14 8 0 24 37 22 53 -1 4 4 7 10 7 5 0 7 5 4 10 -3 6 -1
10 5 10 6 0 8 5 5 10 -3 5 -2 10 3 10 9 0 27 47 24 63 -1 4 3 7 9 7 5 0 7 4 4
10 -3 5 -2 10 4 10 6 0 8 6 5 14 -3 8 0 17 5 21 6 3 9 11 6 16 -4 5 -2 9 4 9
5 0 8 9 6 20 -2 11 0 20 4 20 5 0 12 15 16 33 4 17 9 39 12 47 2 8 6 28 8 43
3 15 9 37 15 48 6 10 8 24 5 29 -3 5 -1 11 4 14 5 4 8 17 6 31 -1 14 1 25 5
25 4 0 7 6 8 13 3 25 10 62 12 65 2 1 3 5 5 10 1 4 5 14 9 23 4 9 6 20 5 25
-1 5 0 11 1 14 3 10 11 45 12 58 1 6 5 12 9 12 4 0 7 10 7 23 0 12 4 38 7 57
4 19 8 43 8 53 1 9 5 17 9 17 4 0 7 3 7 8 -1 4 0 9 1 12 2 7 7 39 11 78 2 17
6 32 9 32 4 0 6 10 5 22 -1 13 3 26 9 30 7 5 6 8 -3 8 -9 0 -10 4 -3 13 5 6
12 30 16 52 3 22 8 51 10 64 3 13 6 41 8 62 1 22 5 39 9 39 3 0 5 14 4 30 -1
16 0 30 4 30 4 0 7 10 8 23 1 12 3 32 6 44 3 13 1 23 -5 23 -7 0 -7 4 -1 13 9
11 11 27 16 102 1 17 7 33 12 37 6 5 5 8 -4 8 -11 0 -11 3 -1 15 8 10 9 15 1
15 -7 0 -8 8 -1 24 5 15 5 27 -3 35 -6 6 -7 11 -1 11 5 0 9 14 9 30 0 17 -3
30 -7 30 -5 0 -8 5 -8 11 0 5 6 7 13 4 6 -4 5 -1 -3 7 -8 7 -15 27 -16 43 -1
50 -15 104 -30 116 -8 6 -12 15 -9 19 6 10 -15 60 -26 60 -4 0 -10 8 -13 18
-4 11 -18 25 -31 32 -14 7 -23 16 -20 19 3 2 -16 15 -42 27 -37 17 -51 19 -62
10 -12 -8 -13 -8 -7 2 6 10 1 10 -21 1 -51 -21 -93 -43 -93 -50 0 -4 -11 -10
-25 -13 -14 -4 -25 -10 -25 -15 0 -4 -18 -16 -40 -26 -22 -10 -40 -22 -40 -27
0 -5 -5 -8 -12 -6 -14 5 -20 39 -8 53 4 5 11 35 14 65 7 59 13 95 16 95 1 0 3
18 4 40 1 23 6 47 11 54 6 10 4 12 -4 6 -10 -6 -11 -3 -3 11 5 11 10 46 12 79
1 33 3 76 4 95 1 19 5 41 9 48 5 7 3 12 -3 12 -7 0 -8 5 -3 13 4 6 9 32 10 57
1 25 3 71 4 102 2 37 6 55 13 51 6 -3 6 0 -1 7 -8 8 -9 20 -2 37 6 17 6 22 -2
17 -8 -4 -8 -1 -2 12 9 17 13 76 17 227 0 31 3 57 6 57 3 0 7 28 7 63 5 162 7
187 17 187 7 0 7 3 1 8 -12 9 -18 32 -7 32 7 0 12 76 15 223 1 31 4 57 7 57 3
0 6 37 7 83 1 45 2 82 3 82 1 0 2 38 3 85 2 47 6 91 10 98 5 6 4 12 -1 12 -5
0 -9 7 -9 15 0 8 5 15 11 15 6 0 6 4 -2 12 -7 7 -8 17 -1 30 6 12 6 18 0 18
-7 0 -7 8 -2 23 5 13 5 30 1 37 -5 8 -6 19 -2 25 10 16 10 95 0 101 -5 3 -4
11 2 19 8 9 8 15 0 20 -7 4 -7 12 0 24 5 10 6 21 3 25 -7 6 -14 84 -16 181 -1
28 -5 52 -9 55 -3 3 -7 25 -9 50 -1 25 -5 50 -8 55 -7 13 -13 44 -14 73 -1 12
-4 22 -7 22 -4 0 -7 6 -8 13 -1 26 -12 61 -21 70 -5 5 -7 16 -4 25 4 9 2 13
-4 9 -7 -5 -9 0 -6 11 2 11 -2 26 -11 34 -8 9 -13 18 -10 21 3 2 -4 20 -15 40
-11 19 -17 38 -14 41 4 3 1 6 -5 6 -7 0 -12 7 -12 15 0 8 -5 15 -12 15 -6 0
-9 3 -5 6 3 4 -5 21 -18 39 -14 17 -25 35 -25 40 0 4 -10 16 -22 26 -11 11
-18 19 -14 19 4 0 1 6 -6 14 -7 8 -24 29 -38 47 -14 18 -37 46 -52 61 -16 16
-28 33 -28 38 0 6 -7 10 -16 10 -8 0 -13 4 -10 9 8 12 -19 33 -29 23 -5 -4 -5
-2 -2 4 3 6 0 21 -6 35 -14 26 -14 35 -3 61 4 9 5 21 3 25 -3 5 -2 15 3 23 5
9 5 19 -2 27 -6 7 -6 13 -1 13 5 0 8 15 8 33 -1 17 3 38 9 46 9 12 8 13 -3 6
-10 -6 -12 -4 -6 6 12 19 12 62 0 72 -6 6 -6 10 3 14 6 2 9 10 5 16 -4 7 -8
26 -9 42 -4 55 -12 94 -27 125 -10 19 -11 28 -4 23 7 -4 6 0 -2 10 -7 9 -11
17 -8 17 5 0 -5 28 -36 103 -7 15 -16 27 -20 27 -5 0 -6 4 -2 9 3 5 -1 16 -9
24 -8 8 -12 17 -9 21 4 3 2 6 -3 6 -5 0 -20 20 -34 44 -13 25 -27 43 -32 40
-4 -3 -5 1 -3 9 3 7 -8 27 -24 44 -16 17 -27 33 -25 36 3 3 -5 13 -18 23 -13
11 -29 31 -37 46 -8 15 -23 30 -33 34 -10 3 -16 9 -14 12 2 4 -12 21 -31 37
-19 17 -46 40 -59 53 -13 12 -26 22 -29 22 -3 0 -17 12 -31 27 -13 14 -27 24
-30 20 -3 -3 -18 8 -33 24 -16 16 -33 29 -40 29 -6 0 -11 5 -11 11 0 5 -4 7
-10 4 -5 -3 -10 -1 -10 5 0 7 -7 9 -17 6 -10 -4 -14 -4 -11 0 9 8 -86 74 -107
74 -9 0 -14 4 -11 8 3 5 -18 20 -47 33 -29 13 -54 27 -57 30 -3 4 -14 9 -25
11 -11 1 -27 10 -35 18 -8 8 -22 16 -30 18 -8 2 -24 11 -34 20 -11 9 -16 11
-12 4 4 -7 -7 -4 -25 7 -18 11 -36 18 -41 15 -4 -3 -8 -1 -8 4 0 6 -27 23 -60
38 -33 15 -60 31 -60 36 0 5 -4 6 -10 3 -5 -3 -10 -2 -10 2 0 13 -56 43 -65
35 -5 -4 -5 -2 -2 4 3 6 -6 17 -21 25 -15 8 -29 16 -32 19 -11 13 -67 49 -80
52 -7 2 -21 10 -31 18 -30 26 -44 35 -58 38 -7 1 -20 9 -28 17 -8 8 -20 15
-28 15 -7 0 -15 7 -19 15 -3 8 -12 15 -21 15 -8 0 -15 3 -15 8 0 4 -10 12 -23
18 -60 30 -112 60 -115 67 -2 4 -10 7 -18 7 -8 0 -14 5 -14 10 0 6 -7 10 -15
10 -8 0 -37 14 -65 30 -28 17 -55 30 -59 30 -5 0 -14 7 -21 15 -7 8 -16 13
-20 10 -4 -3 -18 4 -31 14 -13 10 -27 19 -31 21 -4 1 -17 4 -28 7 -11 3 -20 9
-20 14 0 5 -3 8 -7 7 -5 -1 -26 6 -48 16 -60 27 -90 38 -91 34 -1 -2 -12 6
-25 17 -13 12 -19 14 -14 5 4 -8 -4 -4 -18 9 -15 14 -30 22 -33 18 -3 -3 -21
3 -40 14 -19 10 -41 19 -49 19 -8 0 -15 4 -15 8 0 5 -6 9 -12 10 -16 1 -37 7
-63 16 -11 5 -37 14 -58 22 -21 8 -43 12 -48 9 -5 -4 -9 -1 -9 4 0 6 -11 11
-25 11 -14 0 -25 4 -25 8 0 7 -16 11 -57 14 -7 1 -13 4 -13 8 0 3 -8 6 -17 7
-10 1 -31 4 -48 8 -16 4 -38 8 -47 9 -10 0 -18 3 -18 6 0 3 -16 5 -35 5 -20
-1 -38 2 -41 7 -3 5 -9 6 -12 4 -4 -2 -30 6 -57 20 -28 13 -56 24 -62 24 -7 0
-13 5 -13 11 0 5 -4 8 -8 5 -5 -3 -20 1 -35 9 -15 8 -27 12 -27 10 0 -2 -21 7
-47 20 -27 13 -55 25 -63 27 -8 2 -21 9 -28 16 -8 7 -18 10 -23 7 -5 -4 -9 -1
-9 6 0 7 -3 9 -7 6 -3 -4 -17 0 -30 8 -14 9 -23 11 -23 5 0 -7 -8 -5 -21 4
-12 8 -27 12 -34 10 -7 -3 -16 -1 -20 5 -3 6 -19 11 -36 11 -16 0 -29 4 -29 8
0 4 -15 8 -32 9 -48 2 -82 8 -97 18 -10 6 -12 4 -6 -5 6 -10 4 -11 -6 -4 -8 4
-25 9 -39 11 -37 3 -94 11 -105 13 -5 1 -14 1 -20 0 -27 -6 -51 -4 -57 5 -5 6
-8 5 -8 -2 0 -9 -7 -10 -22 -4 -13 5 -33 5 -45 0 -13 -5 -23 -5 -23 0 0 11
-19 9 -37 -2 -8 -5 -13 -3 -13 3 0 6 -5 8 -12 4 -17 -11 -58 -11 -58 -1 0 5
-6 5 -12 -1 -16 -12 -86 -13 -93 -1 -3 4 -12 6 -20 2 -8 -3 -15 1 -15 8 0 7
-3 10 -6 7 -3 -4 -17 0 -31 7 -15 8 -30 12 -35 9 -4 -3 -8 0 -8 6 0 6 -4 9 -8
6 -4 -2 -21 1 -37 8 -78 34 -91 39 -109 41 -11 1 -22 7 -24 14 -3 9 -8 9 -20
-1 -12 -10 -14 -10 -8 0 4 7 2 12 -8 12 -8 0 -22 3 -32 7 -13 5 -15 3 -9 -8 6
-10 3 -9 -11 2 -10 9 -27 15 -36 14 -10 -2 -18 1 -18 6 0 5 -11 4 -25 -1 -15
-6 -26 -6 -30 0 -4 7 -80 7 -80 0 0 -1 -20 -3 -45 -6 -24 -2 -48 -10 -52 -17
-6 -9 -8 -9 -8 0 0 7 -7 10 -15 7 -8 -4 -12 -11 -8 -17 3 -6 1 -7 -6 -3 -15 9
-53 -3 -46 -15 3 -5 -1 -6 -10 -3 -8 4 -21 1 -29 -5 -7 -6 -16 -8 -19 -4 -4 3
-7 1 -7 -5 0 -7 -7 -12 -16 -12 -9 0 -12 -5 -8 -12 6 -10 4 -10 -8 0 -11 9
-17 9 -20 2 -4 -13 -70 -16 -113 -5 -16 4 -38 7 -47 8 -10 1 -18 4 -18 8 0 3
-19 12 -42 19 -24 8 -46 18 -49 23 -3 4 -12 9 -20 11 -8 1 -24 8 -36 14 -13 7
-23 9 -23 5 0 -4 -4 -3 -8 2 -7 9 -43 28 -87 45 -61 24 -77 29 -107 32 -10 1
-18 6 -18 10 0 4 -9 5 -20 3 -11 -2 -20 0 -20 5 0 4 -8 7 -17 6 -10 -2 -20 0
-23 3 -3 4 -13 5 -22 3z"/>
</g>
</svg>
